HIERARCHY
ROOT Hips
{
 OFFSET 0.000000 0.000000 0.000000
 CHANNELS 6 Xposition Yposition Zposition Yrotation Xrotation Zrotation
 JOINT Chest
 {
  OFFSET 0.000000 9.585900 0.002600
  CHANNELS 3 Yrotation Xrotation Zrotation
  JOINT Chest2
  {
   OFFSET 0.000000 9.601200 -0.005300
   CHANNELS 3 Yrotation Xrotation Zrotation
   JOINT Chest3
   {
    OFFSET 0.000000 9.561800 0.000000
    CHANNELS 3 Yrotation Xrotation Zrotation
    JOINT Chest4
    {
     OFFSET 0.000000 9.552100 0.000000
     CHANNELS 3 Yrotation Xrotation Zrotation
     JOINT Neck
     {
      OFFSET 0.000000 14.453000 0.000000
      CHANNELS 3 Yrotation Xrotation Zrotation
      JOINT Head
      {
       OFFSET 0.000000 8.936500 -0.011300
       CHANNELS 3 Yrotation Xrotation Zrotation
       End Site
       {
        OFFSET 0.000000 17.073600 -0.006000
       }
      }
     }
     JOINT RightCollar
     {
      OFFSET -2.921100 9.558500 0.000000
      CHANNELS 3 Yrotation Xrotation Zrotation
      JOINT RightShoulder
      {
       OFFSET -13.519700 0.000000 0.000000
       CHANNELS 3 Yrotation Xrotation Zrotation
       JOINT RightElbow
       {
        OFFSET 0.000000 -29.696600 0.000000
        CHANNELS 3 Yrotation Xrotation Zrotation
        JOINT RightWrist
        {
         OFFSET 0.000000 -24.004700 0.000000
         CHANNELS 3 Yrotation Xrotation Zrotation
         End Site
         {
          OFFSET 0.000000 -17.728500 0.000000
         }
        }
       }
      }
     }
     JOINT LeftCollar
     {
      OFFSET 2.921100 9.558500 0.000000
      CHANNELS 3 Yrotation Xrotation Zrotation
      JOINT LeftShoulder
      {
       OFFSET 13.519700 0.000000 0.000000
       CHANNELS 3 Yrotation Xrotation Zrotation
       JOINT LeftElbow
       {
        OFFSET 0.000000 -29.696600 0.000000
        CHANNELS 3 Yrotation Xrotation Zrotation
        JOINT LeftWrist
        {
         OFFSET 0.000000 -24.004700 0.000000
         CHANNELS 3 Yrotation Xrotation Zrotation
         End Site
         {
          OFFSET 0.000000 -17.728500 0.000000
         }
        }
       }
      }
     }
    }
   }
  }
 }
 JOINT RightHip
 {
  OFFSET -7.771700 -0.012900 -0.001300
  CHANNELS 3 Yrotation Xrotation Zrotation
  JOINT RightKnee
  {
   OFFSET 0.000000 -40.869800 0.001200
   CHANNELS 3 Yrotation Xrotation Zrotation
   JOINT RightAnkle
   {
    OFFSET 0.000000 -39.717900 0.002100
    CHANNELS 3 Yrotation Xrotation Zrotation
    JOINT RightToe
    {
     OFFSET 0.000000 -4.965400 11.033500
     CHANNELS 3 Yrotation Xrotation Zrotation
     End Site
     {
      OFFSET 0.000000 -1.423100 5.872300
     }
    }
   }
  }
 }
 JOINT LeftHip
 {
  OFFSET 7.771700 -0.012900 -0.001300
  CHANNELS 3 Yrotation Xrotation Zrotation
  JOINT LeftKnee
  {
   OFFSET 0.000000 -40.869800 0.001200
   CHANNELS 3 Yrotation Xrotation Zrotation
   JOINT LeftAnkle
   {
    OFFSET 0.000000 -39.717900 0.002100
    CHANNELS 3 Yrotation Xrotation Zrotation
    JOINT LeftToe
    {
     OFFSET 0.000000 -4.965400 11.033500
     CHANNELS 3 Yrotation Xrotation Zrotation
     End Site
     {
      OFFSET 0.000000 -1.423100 5.872300
     }
    }
   }
  }
 }
}
MOTION
Frames: 11
Frame Time: 0.008333
-253.227271 56.784714 155.772400 177.385234 -48.441984 0.004624 0.609253 27.141274 3.172099 -0.018268 4.730469 0.562848 -0.041629 7.471637 0.886482 0.195026 22.082391 2.707964 0.447973 12.621939 -2.790877 1.996557 -12.281995 -5.489012 3.227668 -2.326317 -1.131563 15.799396 -19.196197 -20.376705 140.129910 -73.997384 -105.994215 13.884448 -11.457330 -47.580068 -8.133206 -2.228842 -3.402458 4.002758 -13.174955 2.505886 -129.010175 -56.669154 101.930198 -11.191184 -15.713867 24.467150 3.727403 -27.698949 -3.281324 -6.348953 61.302406 -10.255074 4.628995 30.786337 2.711577 -0.760231 -15.730560 6.098090 -9.299776 -26.178857 -1.790563 30.973075 62.794506 29.739245 -12.116833 12.498502 -5.739118 -0.043043 0.289533 -0.006148
-253.229278 56.784695 155.771852 177.375152 -48.435643 -0.001581 0.599710 27.129526 3.174668 -0.021165 4.725399 0.562534 -0.044921 7.467145 0.886628 0.201642 22.088267 2.706061 0.444303 12.603931 -2.789855 2.001247 -12.322351 -5.496319 3.222465 -2.327212 -1.142839 15.768128 -19.191694 -20.376706 140.213143 -74.009039 -106.050822 13.883505 -11.471372 -47.575726 -8.133514 -2.229418 -3.408920 3.992785 -13.176237 2.512783 -129.097808 -56.621352 101.960246 -11.190742 -15.694223 24.473764 3.699840 -27.701859 -3.275880 -6.321391 61.298350 -10.223195 4.622076 30.761372 2.713091 -0.749009 -15.711636 6.069360 -9.289827 -26.184726 -1.782928 30.999579 62.790447 29.775091 -12.125840 12.495181 -5.741712 -0.036517 0.278622 -0.008466
-253.231627 56.787354 155.768864 177.382044 -48.446862 -0.017107 0.578733 27.136729 3.175688 -0.025796 4.720588 0.559338 -0.048686 7.462425 0.886749 0.209233 22.093043 2.705300 0.453343 12.605457 -2.795119 1.989795 -12.383938 -5.496999 3.217182 -2.327656 -1.152044 15.750508 -19.185791 -20.377422 140.293590 -74.017470 -106.107466 13.890408 -11.467474 -47.596213 -8.183479 -2.255475 -3.395462 4.038418 -13.154271 2.503641 -129.136962 -56.598264 101.976366 -11.183950 -15.669061 24.482784 3.639993 -27.686199 -3.271867 -6.291267 61.298942 -10.193822 4.637694 30.730876 2.689372 -0.752521 -15.693898 6.062589 -9.289227 -26.171129 -1.779061 31.060919 62.779678 29.840864 -12.160936 12.480968 -5.750142 -0.027681 0.279974 -0.004686
-253.234034 56.788897 155.766832 177.382671 -48.444430 -0.024892 0.560756 27.130432 3.172018 -0.027509 4.719360 0.563832 -0.052701 7.459357 0.886853 0.166973 22.072247 2.707219 0.479636 12.604062 -2.815989 1.997211 -12.423959 -5.511429 3.251672 -2.303671 -1.184114 15.745353 -19.179718 -20.378253 140.345091 -74.024809 -106.145392 13.891621 -11.463895 -47.615269 -8.159743 -2.243132 -3.420086 3.974056 -13.189544 2.517597 -128.998166 -56.624941 101.910445 -11.188759 -15.684613 24.472803 3.618145 -27.685689 -3.265234 -6.286215 61.299227 -10.191486 4.640242 30.713661 2.683037 -0.748339 -15.683098 6.057763 -9.289734 -26.171519 -1.772923 31.075921 62.776073 29.859616 -12.175188 12.477439 -5.758135 -0.018324 0.277234 -0.001555
-253.235821 56.791695 155.763686 177.378556 -48.446927 -0.027733 0.555826 27.130878 3.171990 -0.038793 4.714009 0.562644 -0.078475 7.444373 0.884713 0.196365 22.087479 2.705006 0.446665 12.535597 -2.805244 2.029599 -12.425687 -5.534818 3.243471 -2.303928 -1.188858 15.758033 -19.172003 -20.377385 140.241455 -74.031236 -106.070752 13.901441 -11.473303 -47.630020 -8.179784 -2.250973 -3.417166 3.984001 -13.187707 2.516201 -129.043641 -56.598415 101.929196 -11.212266 -15.722636 24.448147 3.583177 -27.676812 -3.255940 -6.257941 61.298239 -10.177616 4.645682 30.682820 2.681997 -0.750786 -15.664616 6.048164 -9.266625 -26.160852 -1.777012 31.066881 62.768055 29.871975 -12.191512 12.467200 -5.769148 -0.009419 0.282892 0.004388
-253.235283 56.796217 155.759096 177.376742 -48.458217 -0.039790 0.553410 27.140140 3.180478 -0.050135 4.708883 0.560262 -0.068975 7.446997 0.886054 0.191044 22.084333 2.703629 0.448910 12.525319 -2.806983 2.032355 -12.446563 -5.539878 3.237717 -2.303176 -1.191668 15.744445 -19.168033 -20.385115 140.270050 -74.037999 -106.093656 13.894832 -11.492371 -47.620385 -8.189922 -2.254439 -3.417142 3.981323 -13.189129 2.519024 -129.081871 -56.573336 101.947117 -11.231267 -15.740883 24.433312 3.522577 -27.651833 -3.227081 -6.207608 61.290766 -10.155974 4.638310 30.634107 2.670976 -0.749580 -15.629335 6.040698 -9.221897 -26.136220 -1.781721 31.038096 62.759808 29.886762 -12.218580 12.446591 -5.784132 0.004470 0.290946 0.010864
-253.234111 56.799764 155.755396 177.383261 -48.457321 -0.055521 0.533828 27.137198 3.178922 -0.051212 4.706687 0.560652 -0.059903 7.448069 0.887333 0.148289 22.061894 2.710040 0.480579 12.535631 -2.830699 2.019730 -12.532610 -5.546787 3.265887 -2.278876 -1.216203 15.732451 -19.171379 -20.391730 140.271447 -74.047056 -106.091650 13.891222 -11.501511 -47.630621 -8.172297 -2.244873 -3.443410 3.964080 -13.200375 2.526885 -129.162824 -56.514475 101.993540 -11.221715 -15.689879 24.438290 3.492717 -27.644381 -3.210879 -6.197689 61.289166 -10.148161 4.627161 30.606792 2.649937 -0.753690 -15.621258 6.045458 -9.223988 -26.132966 -1.771821 31.058630 62.753655 29.911708 -12.230049 12.445273 -5.788145 0.013688 0.281546 0.010398
-253.229789 56.804908 155.750441 177.372179 -48.465757 -0.069923 0.528857 27.142250 3.189288 -0.052352 4.704501 0.561267 -0.061628 7.444962 0.888182 0.146592 22.060925 2.710765 0.479603 12.508082 -2.834198 2.018701 -12.600231 -5.561681 3.268164 -2.270597 -1.228016 15.717799 -19.174007 -20.400783 140.291954 -74.057097 -106.106430 13.901625 -11.484163 -47.649324 -8.188163 -2.253749 -3.454227 3.961331 -13.205512 2.534444 -129.182133 -56.480510 102.006448 -11.229433 -15.684491 24.432713 3.474145 -27.625597 -3.180390 -6.204966 61.282844 -10.153761 4.623946 30.576019 2.636581 -0.754237 -15.603272 6.044750 -9.199493 -26.111529 -1.758710 31.050714 62.752126 29.938078 -12.253874 12.418400 -5.810895 0.031250 0.289969 0.017213
-253.228060 56.808674 155.746625 177.367005 -48.460989 -0.067407 0.499992 27.135108 3.171191 -0.038495 4.702531 0.563490 -0.063783 7.442004 0.888937 0.139937 22.063276 2.710029 0.479392 12.476127 -2.837691 2.017468 -12.646227 -5.572719 3.279762 -2.264416 -1.237933 15.701031 -19.179908 -20.414974 140.346621 -74.071631 -106.148660 13.907968 -11.481295 -47.652034 -8.190326 -2.258760 -3.464472 3.940164 -13.223132 2.544099 -129.123420 -56.485722 101.974108 -11.259254 -15.724445 24.415816 3.471444 -27.622742 -3.177160 -6.220424 61.279539 -10.164900 4.620469 30.553620 2.625046 -0.750187 -15.589455 6.044972 -9.151709 -26.106017 -1.776433 31.002799 62.746713 29.934110 -12.254942 12.407442 -5.817554 0.033822 0.295897 0.019346
-253.225888 56.811927 155.743347 177.362932 -48.451267 -0.063211 0.493935 27.126061 3.165228 -0.064653 4.701040 0.560785 -0.057622 7.439374 0.888491 0.142081 22.063125 2.709184 0.460367 12.423136 -2.839701 2.035391 -12.672671 -5.589140 3.291489 -2.261756 -1.248860 15.651416 -19.190223 -20.429973 140.484676 -74.087988 -106.243333 13.906609 -11.486808 -47.649165 -8.176120 -2.258430 -3.475499 3.903604 -13.236988 2.553395 -129.124708 -56.451939 101.975223 -11.261106 -15.722856 24.413600 3.470943 -27.625185 -3.175769 -6.226268 61.274859 -10.170259 4.616056 30.539022 2.620122 -0.749031 -15.580930 6.044104 -9.131871 -26.112487 -1.785966 30.985584 62.746554 29.937818 -12.255266 12.406615 -5.820109 0.033881 0.291405 0.016576
-253.222536 56.814809 155.740557 177.370407 -48.438946 -0.070781 0.482572 27.114947 3.163301 -0.077475 4.700755 0.560434 -0.046408 7.437711 0.887958 0.137082 22.062422 2.709012 0.441707 12.384918 -2.838082 2.041328 -12.714712 -5.604417 3.284597 -2.268141 -1.251962 15.638012 -19.189191 -20.436374 140.488154 -74.091858 -106.238981 13.907482 -11.486276 -47.650048 -8.195344 -2.271258 -3.478876 3.845248 -13.256189 2.578307 -129.063806 -56.431958 101.959603 -11.252830 -15.715744 24.409927 3.461050 -27.627009 -3.168416 -6.251223 61.268610 -10.190007 4.605953 30.509312 2.601938 -0.749477 -15.570823 6.049446 -9.129015 -26.122644 -1.789882 30.959742 62.746513 29.932202 -12.249650 12.413732 -5.828528 0.026733 0.278214 0.015203
